<svg width="161" height="54" viewBox="0 0 161 54" fill="none" xmlns="http://www.w3.org/2000/svg">
<mask id="mask0_621_77139" style="mask-type:luminance" maskUnits="userSpaceOnUse" x="0" y="0" width="58" height="54">
<path d="M0 0H57.43V53.807H0V0Z" fill="white"/>
</mask>
<g mask="url(#mask0_621_77139)">
<path fill-rule="evenodd" clip-rule="evenodd" d="M31.219 10.5011C27.6 16.7611 24.189 22.6591 20.617 28.8371H37.049C36.194 30.4801 35.502 31.9171 34.713 33.3001C33.826 34.8561 32.857 36.3651 31.914 37.8891C29.542 41.7241 27.614 45.8181 25.038 49.5401C24.122 50.8631 23.525 52.4081 22.805 53.8071H0C1.071 51.9591 2.105 50.1751 3.146 48.3791H19.684C22.377 43.7751 25.081 39.1531 27.847 34.4241H11.347C13.312 30.8301 15.15 27.4601 17.25 24.2221C18.845 21.7611 20.069 19.0611 21.537 16.5131C23.013 13.9511 24.596 11.4511 26.112 8.91215C26.787 7.78015 27.416 6.62115 28.059 5.47115C29.078 3.64715 30.09 1.81915 31.103 -0.000854492C33.539 3.58315 35.542 7.48715 37.839 11.2131C39.454 13.8341 40.829 16.6391 42.438 19.2821C44.624 22.8701 46.565 26.5961 48.814 30.1561C50.287 32.4881 51.556 35.0011 52.923 37.4291C54.37 40.0001 55.878 42.5381 57.43 45.2121C56.476 45.5011 55.512 45.3291 54.572 45.3591C53.657 45.3891 52.74 45.3661 51.556 45.3661C51.158 44.7911 50.631 44.1151 50.195 43.3841C48.482 40.5141 46.929 37.5541 45.104 34.7411C43.507 32.2811 42.282 29.5821 40.814 27.0331C39.338 24.4711 37.755 21.9701 36.237 19.4321C35.28 17.8331 34.338 16.2241 33.421 14.6021C32.733 13.3851 32.096 12.1391 31.219 10.5011Z" fill="#7667E2"/>
</g>
<path fill-rule="evenodd" clip-rule="evenodd" d="M26.5211 53.7811C30.7751 46.4431 35.0001 39.1571 39.3441 31.6631C40.8441 33.0291 41.4261 34.9121 42.6431 36.5831C40.4061 40.4441 38.1951 44.2591 35.9761 48.0881C35.9911 48.1241 36.0031 48.1951 36.0441 48.2381C36.0961 48.2931 36.1721 48.3611 36.2381 48.3611C43.8871 48.3661 51.5351 48.3661 59.2741 48.3661C60.2871 50.1291 61.3151 51.9181 62.3851 53.7811H26.5211Z" fill="#7667E2"/>
</svg>
