<svg width="161" height="54" viewBox="0 0 161 54" fill="none" xmlns="http://www.w3.org/2000/svg">
<path d="M72.82 42.154C71.7493 42.154 70.7813 41.9707 69.916 41.604C69.0653 41.2373 68.3907 40.7093 67.892 40.02C67.3933 39.3307 67.1367 38.5167 67.122 37.578H70.422C70.466 38.2087 70.686 38.7073 71.082 39.074C71.4927 39.4407 72.05 39.624 72.754 39.624C73.4727 39.624 74.0373 39.4553 74.448 39.118C74.8587 38.766 75.064 38.3113 75.064 37.754C75.064 37.2993 74.9247 36.9253 74.646 36.632C74.3673 36.3387 74.0153 36.1113 73.59 35.95C73.1793 35.774 72.6073 35.5833 71.874 35.378C70.8767 35.0847 70.0627 34.7987 69.432 34.52C68.816 34.2267 68.2807 33.794 67.826 33.222C67.386 32.6353 67.166 31.858 67.166 30.89C67.166 29.9807 67.3933 29.1887 67.848 28.514C68.3027 27.8393 68.9407 27.326 69.762 26.974C70.5833 26.6073 71.522 26.424 72.578 26.424C74.162 26.424 75.4453 26.8127 76.428 27.59C77.4253 28.3527 77.9753 29.4233 78.078 30.802H74.69C74.6607 30.274 74.4333 29.8413 74.008 29.504C73.5973 29.152 73.0473 28.976 72.358 28.976C71.7567 28.976 71.2727 29.13 70.906 29.438C70.554 29.746 70.378 30.1933 70.378 30.78C70.378 31.1907 70.51 31.5353 70.774 31.814C71.0527 32.078 71.39 32.298 71.786 32.474C72.1967 32.6353 72.7687 32.826 73.502 33.046C74.4993 33.3393 75.3133 33.6327 75.944 33.926C76.5747 34.2193 77.1173 34.6593 77.572 35.246C78.0267 35.8327 78.254 36.6027 78.254 37.556C78.254 38.3773 78.0413 39.14 77.616 39.844C77.1907 40.548 76.5673 41.1127 75.746 41.538C74.9247 41.9487 73.9493 42.154 72.82 42.154ZM93.1343 26.644L87.9423 36.654V42H84.8623V36.654L79.6483 26.644H83.1243L86.4243 33.662L89.7023 26.644H93.1343ZM111.653 26.644V42H108.573V32.012L104.459 42H102.127L97.9906 32.012V42H94.9106V26.644H98.4086L103.293 38.062L108.177 26.644H111.653ZM117.778 39.558H122.838V42H114.698V26.644H117.778V39.558ZM127.875 26.644V42H124.795V26.644H127.875ZM144.052 42H140.972L133.998 31.462V42H130.918V26.622H133.998L140.972 37.182V26.622H144.052V42ZM155.764 42L150.176 35.158V42H147.096V26.644H150.176V33.53L155.764 26.644H159.482L153.146 34.256L159.658 42H155.764Z" fill="#333F4E"/>
<mask id="mask0_621_77139" style="mask-type:luminance" maskUnits="userSpaceOnUse" x="0" y="0" width="58" height="54">
<path d="M0 0H57.43V53.807H0V0Z" fill="white"/>
</mask>
<g mask="url(#mask0_621_77139)">
<path fill-rule="evenodd" clip-rule="evenodd" d="M31.219 10.5011C27.6 16.7611 24.189 22.6591 20.617 28.8371H37.049C36.194 30.4801 35.502 31.9171 34.713 33.3001C33.826 34.8561 32.857 36.3651 31.914 37.8891C29.542 41.7241 27.614 45.8181 25.038 49.5401C24.122 50.8631 23.525 52.4081 22.805 53.8071H0C1.071 51.9591 2.105 50.1751 3.146 48.3791H19.684C22.377 43.7751 25.081 39.1531 27.847 34.4241H11.347C13.312 30.8301 15.15 27.4601 17.25 24.2221C18.845 21.7611 20.069 19.0611 21.537 16.5131C23.013 13.9511 24.596 11.4511 26.112 8.91215C26.787 7.78015 27.416 6.62115 28.059 5.47115C29.078 3.64715 30.09 1.81915 31.103 -0.000854492C33.539 3.58315 35.542 7.48715 37.839 11.2131C39.454 13.8341 40.829 16.6391 42.438 19.2821C44.624 22.8701 46.565 26.5961 48.814 30.1561C50.287 32.4881 51.556 35.0011 52.923 37.4291C54.37 40.0001 55.878 42.5381 57.43 45.2121C56.476 45.5011 55.512 45.3291 54.572 45.3591C53.657 45.3891 52.74 45.3661 51.556 45.3661C51.158 44.7911 50.631 44.1151 50.195 43.3841C48.482 40.5141 46.929 37.5541 45.104 34.7411C43.507 32.2811 42.282 29.5821 40.814 27.0331C39.338 24.4711 37.755 21.9701 36.237 19.4321C35.28 17.8331 34.338 16.2241 33.421 14.6021C32.733 13.3851 32.096 12.1391 31.219 10.5011Z" fill="#7667E2"/>
</g>
<path fill-rule="evenodd" clip-rule="evenodd" d="M26.5211 53.7811C30.7751 46.4431 35.0001 39.1571 39.3441 31.6631C40.8441 33.0291 41.4261 34.9121 42.6431 36.5831C40.4061 40.4441 38.1951 44.2591 35.9761 48.0881C35.9911 48.1241 36.0031 48.1951 36.0441 48.2381C36.0961 48.2931 36.1721 48.3611 36.2381 48.3611C43.8871 48.3661 51.5351 48.3661 59.2741 48.3661C60.2871 50.1291 61.3151 51.9181 62.3851 53.7811H26.5211Z" fill="#7667E2"/>
</svg>
